<?xml version="1.0" encoding="UTF-8"?>
<svg id="Layer_2" data-name="Layer 2" xmlns="http://www.w3.org/2000/svg" viewBox="0 0 1083.34 965.01">
  <defs>
    <style>
      .cls-1 {
        fill: #fff;
      }
    </style>
  </defs>
  <g id="Texto">
    <g>
      <path id="TM" class="cls-1" d="M920.04,853.43v30.89h-6.47v-30.89h-10.59v-5.3h27.36v5.3h-10.3ZM962.4,884.32c0-3.53.29-28.54.29-28.54l-8.53,28.54h-5.88l-8.24-27.95v27.95h-6.18v-36.19h8.53l8.83,28.83,8.53-28.83h8.24v36.19h-5.59Z"/>
      <g id="Bug_new_Windows_" data-name="Bug (new Windows)">
        <path id="Upper" class="cls-1" d="M547.74,28.95h255.69c46.66,0,84.48,37.82,84.48,84.48,0,0-.07,438.51-.07,439.47l29.02,27.04V113.43c0-62.65-50.79-113.43-113.43-113.43h-393.17c-66.34,0-127.19,23.35-174.92,62.19l75.17,48.4c65.46-51.1,147.76-81.63,237.24-81.63Z"/>
        <path id="Main" class="cls-1" d="M1061.73,741.27l-367.4-342.28c57.9-74.44,101.72-155.37,131.9-239.56,12.74-38.63,15.74-67.56,4.18-76.55-11.56-8.99-38.86,1.04-73.17,22.9-74.18,49.98-141.82,112.37-199.73,186.81L135.36,20.76c-23.48-15.13-53.83-14.31-76.46,2.05L2.35,63.69c-3.48,2.52-3.01,7.84.86,9.71l16.1,7.78c5.12,2.47,9.91,5.58,14.26,9.25l114.56,96.72c-9.77,28.35-15.33,58.65-15.33,90.31v347.7l28.95-37.21v-173c0-64.65,15.98-125.55,44.08-179.08l222.2,187.59c17.35,14.65,21.98,39.5,11.05,59.41l-112.16,204.43-138.91-66.33c-11.71-5.59-25.73-2.28-33.69,7.97l-21.51,27.66v194.99c0,62.65,50.79,113.43,113.43,113.43h393.17c123.06,0,227.25-80.19,263.58-191.11l116.25,83.15c4.63,3.31,8.82,7.19,12.48,11.54l11.51,13.7c2.76,3.29,8.03,2.43,9.62-1.56l25.72-64.83c10.3-25.97,3.62-55.6-16.82-74.64ZM480.67,438.46l91.19-135.89c30.44-45.36,83.84-87.64,128.71-52.75,44.86,34.89,17.03,97.06-19.44,137.73l-109.26,121.83c-1.87,2.09-5.04,2.37-7.25.65-2.37-1.84-2.75-5.27-.85-7.59l94.43-115.19c17.26-22.2,13.25-54.19-8.95-71.46-22.2-17.27-54.19-13.27-71.46,8.92l-88.4,119.88c-1.78,2.41-5.2,2.89-7.57,1.04-2.21-1.72-2.72-4.86-1.15-7.18ZM501.92,936.05h-255.69c-46.65,0-84.47-37.82-84.47-84.47v-165.47l113.38,88.19-62.92,93.22c-1.84,2.73-1.25,6.43,1.35,8.45,2.6,2.02,6.33,1.68,8.52-.78l74.87-83.93,137.8,107.17c4.38,3.41,10.7,2.62,14.11-1.76l18.74-24.09c7.97-10.24,7.73-24.65-.57-34.62l-98.48-118.31,170.57-159.01c16.61-15.48,41.83-17.12,60.3-3.9l243.52,174.19c-64.85,122.01-193.19,205.12-341,205.12Z"/>
      </g>
    </g>
  </g>
</svg>